<svg width="24px" height="24px" viewBox="0 0 24 24" role="img" xmlns="http://www.w3.org/2000/svg">
  <title>
    SVGO icon
  </title>
  <style>
    path {
      fill: #0969da;
    }
    @media (prefers-color-scheme: dark) {
      path {
        fill: #58a6ff;
      }
    }
  </style>
  <path d="M11.152 0 l-.27 1.48 c-.644.068-1.271.194-1.876.373 L8.192.589 l-1.568.65 .318 1.469
           c-.563.307-1.094.664-1.59 1.064 l-1.237-.857 -1.2 1.2 .857 1.238
           c-.4.495-.757 1.026-1.064 1.589 l-1.47-.318 -.65 1.567 1.265.815
           a10.527 10.527 0 00-.372 1.876 L0 11.152 v1.696 l1.48.27 c.069.644.194 1.271.373 1.876
           l-1.264.814 .65 1.568 1.469-.318 c.307.563.664 1.094 1.064 1.59 l-.857 1.237 1.2 1.2
           1.238-.857 c.495.4 1.026.757 1.589 1.064 l-.318 1.47 1.568.65 .814-1.264
           c.605.178 1.232.303 1.877.371 L11.152 24 h1.696 l.27-1.48 a10.531 10.531 0 001.876-.372
           l.814 1.263 1.568-.65 -.318-1.469 a10.596 10.596 0 001.59-1.064 l1.237.857 1.2-1.2
           -.857-1.238 c.4-.495.757-1.026 1.064-1.589 l1.47.318 .65-1.568 -1.264-.814
           c.178-.605.304-1.232.371-1.877 L24 12.848 v-1.696 l-1.48-.27
           a10.524 10.524 0 00-.373-1.876 l1.264-.815 -.65-1.567 -1.469.318
           a10.596 10.596 0 00-1.064-1.59 l.857-1.237 -1.2-1.2 -1.238.857
           c-.495-.4-1.026-.757-1.589-1.064 l.318-1.47 -1.568-.65 -.814 1.264
           a10.536 10.536 0 00-1.877-.371 L12.848 0 z M12 2.805
           a9.196 9.196 0 110 18.392 9.196 9.196 0 010-18.392 z
           m0 .968 a8.227 8.227 0 100 16.454 8.227 8.227 0 000-16.454 z
           m-.475 1.982 a.644.644 0 01.644.643.644.644 0 01-.144.405 l1.364 1.376
           a.805.805 0 01.514-.187.805.805 0 01.23.034 l.383-.968
           a.644.644 0 01-.343-.569.644.644 0 01.644-.643.644.644 0 01.644.643.644.644 0 01-.644.644.644.644 0 01-.17-.024
           l-.384.97 a.805.805 0 01.445.718.805.805 0 01-.805.805.805.805 0 01-.57-.238
           l-1.214 1.013 a1.61 1.61 0 01.331.975 1.61 1.61 0 01-.486 1.152 l.875.98
           a1.127 1.127 0 01.699-.243 1.127 1.127 0 011.126 1.126 1.127 1.127 0 01-.033.264
           l1.556.523
           a.805.805 0 01.729-.465.805.805 0 01.804.805.805.805 0 01-.804.804.805.805 0 01-.805-.804.805.805 0 01.028-.208
           l-1.55-.52 a1.127 1.127 0 01-1.051.728 1.127 1.127 0 01-.526-.131 l-.696 1.288
           a.805.805 0 01.362.67.805.805 0 01-.804.806.805.805 0 01-.805-.805.805.805 0 01.805-.805.805.805 0 01.319.066
           l.7-1.294 a1.127 1.127 0 01-.482-.922 1.127 1.127 0 01.323-.789 l-.876-.981
           a1.61 1.61 0 01-1.017.364 1.61 1.61 0 01-.883-.265 l-.78 1.082
           a1.127 1.127 0 01.413.87 1.127 1.127 0 01-1.127 1.127 1.127 1.127 0 01-1.127-1.127 1.127 1.127 0 011.127-1.126 1.127 1.127 0 01.6.174
           l.78-1.083 a1.61 1.61 0 01-.613-1.261 1.61 1.61 0 01.045-.368 l-1.68-.473
           a.805.805 0 01-.75.52.805.805 0 01-.805-.804.805.805 0 01.804-.805.805.805 0 01.805.805.805.805 0 01-.014.15
           l1.677.471 a1.61 1.61 0 011.528-1.106 1.61 1.61 0 011.188.527 l1.214-1.013
           a.805.805 0 01-.145-.459.805.805 0 01.19-.52 l-1.362-1.375
           a.644.644 0 01-.401.14.644.644 0 01-.644-.644.644.644 0 01.644-.643 z" />
</svg>
